<svg width="212" height="38" viewBox="0 0 212 38" fill="none" xmlns="http://www.w3.org/2000/svg">
<path d="M80.8399 3.0498V8.76006H64.5509V15.3925H79.5325V20.7125H64.5509V28.3026H81.2286V34.0482H57.7314V3.0498H80.8399Z" fill="white"/>
<path d="M103.383 11.3144C102.994 10.6405 102.464 10.073 101.864 9.57648C101.263 9.07994 100.592 8.72526 99.8144 8.44152C99.0724 8.15779 98.2597 8.01592 97.447 8.01592C95.8923 8.01592 94.585 8.29966 93.5603 8.9026C92.5003 9.50554 91.6523 10.2858 90.9809 11.3144C90.2743 12.3075 89.8149 13.4424 89.5323 14.7192C89.2496 16.0315 89.0729 17.3083 89.0729 18.6915C89.0729 20.0039 89.2496 21.2807 89.5323 22.5221C89.8149 23.7635 90.2743 24.8629 90.9809 25.8561C91.6523 26.8137 92.5003 27.6294 93.5603 28.2323C94.6203 28.8353 95.9277 29.119 97.447 29.119C99.4964 29.119 101.122 28.4451 102.323 27.2037C103.489 25.9269 104.161 24.2599 104.443 22.1319H111.015C110.839 24.0827 110.379 25.8561 109.673 27.4166C108.966 28.9771 108.012 30.3249 106.811 31.4244C105.609 32.5238 104.267 33.3396 102.676 33.9426C101.086 34.51 99.3197 34.7938 97.447 34.7938C95.0797 34.7938 92.9596 34.3682 91.0516 33.517C89.1789 32.7012 87.5889 31.5662 86.2461 30.1121C84.9741 28.6579 83.9494 26.9555 83.2781 25.0047C82.5714 23.0895 82.2534 20.9615 82.2534 18.6915C82.2534 16.3862 82.5714 14.2227 83.2781 12.2365C83.9849 10.2858 84.9741 8.51246 86.2461 7.05831C87.5889 5.60414 89.1789 4.43371 91.0516 3.58249C92.9243 2.73128 95.0443 2.30566 97.447 2.30566C99.1432 2.30566 100.768 2.55394 102.252 3.05048C103.772 3.54703 105.15 4.25637 106.316 5.214C107.517 6.13616 108.507 7.30657 109.284 8.6898C110.026 10.073 110.556 11.6336 110.733 13.4424H104.16C104.054 12.6976 103.772 11.9528 103.383 11.3144Z" fill="white"/>
<path d="M123.241 3.0498L130.484 24.3657H130.555L137.41 3.0498H146.95V34.0482H140.59V12.094H140.519L132.958 34.0482H127.728L120.131 12.2713H120.061V34.0482H113.701V3.0498H123.241Z" fill="white"/>
<path d="M173.84 34.0482L168.609 12.9452H168.538L163.381 34.0482H156.491L148.363 3.0498H155.147L160.023 24.1529H160.095L165.464 3.0498H171.826L177.089 24.4366H177.195L182.249 3.0498H188.892L180.587 34.0482H173.84Z" fill="white"/>
<path d="M212 3.0498V8.76006H197.089V15.9245H210.021V21.2446H197.089V34.0482H190.305V3.0498H212Z" fill="white"/>
<path d="M0.172507 20.429H15.3662V16.2793H0.172507C-0.0748307 17.6625 -0.0394967 19.0813 0.172507 20.429Z" fill="white"/>
<path d="M50.7355 21.8474C49.1455 30.3595 41.6546 36.6727 33.0685 36.6727C30.5597 36.6727 27.8743 35.9989 25.613 35.0413C23.2456 36.1763 20.6309 36.6727 17.9809 36.6727C9.3593 36.6727 1.86848 30.4659 0.349121 21.9184L11.4087 21.883C12.6454 24.6494 15.4367 26.4227 18.4402 26.4227C21.6909 26.4227 24.6943 24.2238 25.7896 21.209C26.8143 24.2947 29.8177 26.4227 33.1037 26.4227C36.1779 26.4227 39.0399 24.6139 40.2059 21.883L50.7355 21.8474Z" fill="white"/>
<path d="M50.7355 14.8254C49.1455 6.3132 41.6546 0 33.0685 0C30.5597 0 27.8743 0.638415 25.613 1.63151C23.2456 0.496544 20.6309 0 17.9809 0C9.3593 0 1.86848 6.17132 0.349121 14.7544H11.4087C12.6454 11.988 15.4367 10.2146 18.4402 10.2146C21.6909 10.2146 24.6943 12.449 25.7896 15.4637C26.8143 12.3426 29.8177 10.2146 33.1037 10.2146C36.1779 10.2146 39.0399 12.0234 40.2059 14.7899L50.7355 14.8254Z" fill="white"/>
</svg>
